Music_BattleTentRuins:
	musicheader 1, 2, Music_BattleTentRuins_Ch2

Music_BattleTentRuins_Ch2:
	tempo 202
	volume $77
	dutycycle $2
	vibrato $10, $34
	stereopanning $f
	notetype $c, $82
Music_BattleTentRuins_branch_179544:
	notetype $c, $82
	octave 4
	note E_, 2
	note E_, 4
	octave 3
	note B_, 1
	octave 4
	note E_, 1
	note B_, 4
	note A_, 2
	note G#, 2
	note A_, 3
	note E_, 1
	octave 3
	note B_, 4
	notetype $c, $65
	note F#, 4
	octave 2
	note B_, 4
	notetype $c, $82
	octave 4
	note E_, 2
	note E_, 4
	octave 3
	note B_, 1
	octave 4
	note E_, 1
	note B_, 4
	note A_, 2
	note G#, 2
	note A_, 3
	note F#, 1
	notetype $c, $87
	note G#, 12
	notetype $c, $82
	octave 3
	note A_, 2
	notetype $c, $84
	note A_, 4
	note F#, 1
	note G#, 1
	note A_, 4
	notetype $c, $82
	note C#, 4
	octave 4
	note G#, 2
	notetype $c, $84
	note G#, 4
	note F#, 1
	note G#, 1
	note E_, 4
	notetype $c, $82
	octave 3
	note E_, 4
	octave 4
	note F#, 2
	notetype $c, $84
	note F#, 4
	note A_, 1
	note G#, 1
	note A_, 4
	note D_, 4
	notetype $c, $82
	note E_, 2
	notetype $c, $84
	note E_, 4
	note F#, 1
	note E_, 1
	note D#, 4
	notetype $c, $73
	octave 3
	note D#, 1
	note F#, 1
	note B_, 1
	octave 4
	note D#, 1
	loopchannel 0, Music_BattleTentRuins_branch_179544
